/* XPM */
static char *_530121382671[] = {
/* columns rows colors chars-per-pixel */
"32 32 60 1 ",
"  c #DC76DE",
". c #DE79DF",
"X c #E375DE",
"o c #EB72DD",
"O c #E378DF",
"+ c #ED7BDF",
"@ c #F376DE",
"# c #F57BDF",
"$ c #FD7ADE",
"% c #DB7DE1",
"& c #EA7FE0",
"* c #F37EE0",
"= c #FF82D7",
"- c #FF8AD7",
"; c #FF85DC",
": c #FF8BDB",
"> c #FF91D5",
", c #FF9FD6",
"< c #FF93DB",
"1 c #FF9CDB",
"2 c #FFA2D6",
"3 c #FFA1DC",
"4 c #FFAEDC",
"5 c #FFB0DC",
"6 c #DE82E1",
"7 c #E381E1",
"8 c #EA82E1",
"9 c #E58DE4",
"0 c #EC8DE4",
"q c #F683E1",
"w c #FD85E1",
"e c #F48CE3",
"r c #FB8AE2",
"t c #EC94E5",
"y c #F593E4",
"u c #FE95E3",
"i c #FD98E5",
"p c #EFA3E9",
"a c #FEA5E5",
"s c #FFADE4",
"d c #F2A5E9",
"f c #FCA2E8",
"g c #F0AAEB",
"h c #FCA9EA",
"j c #FFB4E2",
"k c #FFBFE7",
"l c #F6B3ED",
"z c #F5BFEF",
"x c #FFBCEC",
"c c #FEC3EC",
"v c #FFCAEE",
"b c #FCCCF2",
"n c #FDD5F3",
"m c #FFD8F1",
"M c #FFE2F6",
"N c #FCE4F9",
"B c #FFEDF9",
"V c #FFF4FC",
"C c #FFFAFE",
"Z c None",
/* pixels */
"ZZZZZZZZZZZZZZZZZZZZZZZZZZZZZZZZ",
"ZZZZZZZZZZZZZZZZZZZZZZZZZZZZZZZZ",
"ZZZZZZZZZZZZZZZZZZZZZZZZZZZZZZZZ",
"ZZZZZZZZZZZZZ666%%ZZZZZZZZZZZZZZ",
"ZZZZZZZZZZZZ66666%  ZZZZZZZZZZZZ",
"ZZZZZZZZZZ76666676%%%%ZZZZZZZZZZ",
"ZZZZZZZZ99977777776%XX  ZZZZZZZZ",
"ZZZZZZZ99999777%777&XXXXXZZZZZZZ",
"ZZZZZ090990009&&777&&&XXXXoZZZZZ",
"ZZZZ0t00t0tgt09&&&&&p8XoooooZZZZ",
"ZZZZ000t00tNz0008&&pV9&+ooooZZZZ",
"ZZZZe0e0e00lBh00e8eBl&+#&@ooZZZZ",
"ZZZZeeeeeeeebmyeeenn**#####@ZZZZ",
"ZZZZeeeeeeeeyNbeecVyq*######ZZZZ",
"ZZZZrrrrrrrrrfBchVhrrww$$$$$ZZZZ",
"ZZZZuuiiiuiiirxCvxrrr;rrw$$$ZZZZ",
"ZZZZuuuuuuuuuuiBBr;r;;r;;;;;ZZZZ",
"ZZZZuuuuuuuuuubCBn<;;;;;;;=;ZZZZ",
"ZZZZ<<<<<<u<<jVkaCju<;==;=;=ZZZZ",
"ZZZZ<<<<<<<:1Bv<<kCi<<<-----ZZZZ",
"ZZZZ<<111<1<nM<>><mM><><<>>>ZZZZ",
"ZZZZ33i3a13cV411<><Bc>>>>>->ZZZZ",
"ZZZZ333133sBc113333jC31<>>>>ZZZZ",
"ZZZZ21,2,1221,2,,,,,22,,2,3ZZZZZ",
"ZZZZZZ3222,22,2,,,,,,,,,,,ZZZZZZ",
"ZZZZZZZ2242222222,,2,,,,,ZZZZZZZ",
"ZZZZZZZZZ55554545544444ZZZZZZZZZ",
"ZZZZZZZZZZZ5555555555ZZZZZZZZZZZ",
"ZZZZZZZZZZZZZ555555ZZZZZZZZZZZZZ",
"ZZZZZZZZZZZZZZ5j5ZZZZZZZZZZZZZZZ",
"ZZZZZZZZZZZZZZZZZZZZZZZZZZZZZZZZ",
"ZZZZZZZZZZZZZZZZZZZZZZZZZZZZZZZZ"
};
