/* XPM */
static char *_530121441322[] = {
/* columns rows colors chars-per-pixel */
"128 128 81 1 ",
"  c #DE6EDD",
". c #D777DF",
"X c #DC76DE",
"o c #D778DF",
"O c #DC79DF",
"+ c #E36FDC",
"@ c #ED6FDC",
"# c #F26FDC",
"$ c #E375DE",
"% c #EB71DD",
"& c #E47BDF",
"* c #ED7CDF",
"= c #F272DD",
"- c #FE77DC",
"; c #F47BDF",
": c #FB79DD",
"> c #DA7CE0",
", c #E27CE0",
"< c #EA7FE0",
"1 c #F57FE0",
"2 c #FF8DCF",
"3 c #FF9DCF",
"4 c #FF82D5",
"5 c #FF8ED4",
"6 c #FF84DC",
"7 c #FF8DDB",
"8 c #FF91D6",
"9 c #FF9ED5",
"0 c #FF92DB",
"q c #FF9DDA",
"w c #FFA2D5",
"e c #FFA9D7",
"r c #FFA0DC",
"t c #FFAEDB",
"y c #FFB0DC",
"u c #DE82E1",
"i c #E381E1",
"p c #E981E1",
"a c #E68EE4",
"s c #EB8DE4",
"d c #F483E1",
"f c #FE86E0",
"g c #F48BE3",
"h c #FB89E2",
"j c #ED93E5",
"k c #ED9BE7",
"l c #F194E5",
"z c #FE95E2",
"x c #F49AE6",
"c c #FC99E5",
"v c #EFA1E9",
"b c #FFA3E1",
"n c #FFABE4",
"m c #F2A7EA",
"M c #FBA0E8",
"N c #F3ACEB",
"B c #FAAFEB",
"V c #FFB4E4",
"C c #FFB9E3",
"Z c #F3B4ED",
"A c #FDB5EB",
"S c #F5BBEF",
"D c #FFBCEA",
"F c #F6BFF0",
"G c #FFC2E6",
"H c #FFC3EA",
"J c #FFCBEE",
"K c #FFD0EF",
"L c #F6C4F1",
"P c #FAC3F1",
"I c #F7CFF4",
"U c #FFCFF2",
"Y c #FED4F2",
"T c #FEDCF4",
"R c #FFE4F6",
"E c #FFEAF7",
"W c #FDE5F8",
"Q c #FEECF9",
"! c #FFF4FC",
"~ c #FFFFFF",
"^ c None",
/* pixels */
"^^^^^^^^^^^^^^^^^^^^^^^^^^^^^^^^^^^^^^^^^^^^^^^^^^^^^^^^^^^^^^^^^^^^^^^^^^^^^^^^^^^^^^^^^^^^^^^^^^^^^^^^^^^^^^^^^^^^^^^^^^^^^^^^",
"^^^^^^^^^^^^^^^^^^^^^^^^^^^^^^^^^^^^^^^^^^^^^^^^^^^^^^^^^^^^^^^^^^^^^^^^^^^^^^^^^^^^^^^^^^^^^^^^^^^^^^^^^^^^^^^^^^^^^^^^^^^^^^^^",
"^^^^^^^^^^^^^^^^^^^^^^^^^^^^^^^^^^^^^^^^^^^^^^^^^^^^^^^^^^^^^^^^^^^^^^^^^^^^^^^^^^^^^^^^^^^^^^^^^^^^^^^^^^^^^^^^^^^^^^^^^^^^^^^^",
"^^^^^^^^^^^^^^^^^^^^^^^^^^^^^^^^^^^^^^^^^^^^^^^^^^^^^^^^^^^^^^^^^^^^^^^^^^^^^^^^^^^^^^^^^^^^^^^^^^^^^^^^^^^^^^^^^^^^^^^^^^^^^^^^",
"^^^^^^^^^^^^^^^^^^^^^^^^^^^^^^^^^^^^^^^^^^^^^^^^^^^^^^^^^^^^^^^^^^^^^^^^^^^^^^^^^^^^^^^^^^^^^^^^^^^^^^^^^^^^^^^^^^^^^^^^^^^^^^^^",
"^^^^^^^^^^^^^^^^^^^^^^^^^^^^^^^^^^^^^^^^^^^^^^^^^^^^^^^^^^^^^^^^^^^^^^^^^^^^^^^^^^^^^^^^^^^^^^^^^^^^^^^^^^^^^^^^^^^^^^^^^^^^^^^^",
"^^^^^^^^^^^^^^^^^^^^^^^^^^^^^^^^^^^^^^^^^^^^^^^^^^^^^^^^^^^^^^^^^^^^^^^^^^^^^^^^^^^^^^^^^^^^^^^^^^^^^^^^^^^^^^^^^^^^^^^^^^^^^^^^",
"^^^^^^^^^^^^^^^^^^^^^^^^^^^^^^^^^^^^^^^^^^^^^^^^^^^^^^^^^^^^^^^^^^^^^^^^^^^^^^^^^^^^^^^^^^^^^^^^^^^^^^^^^^^^^^^^^^^^^^^^^^^^^^^^",
"^^^^^^^^^^^^^^^^^^^^^^^^^^^^^^^^^^^^^^^^^^^^^^^^^^^^^^^^^^^^^^^^^^^^^^^^^^^^^^^^^^^^^^^^^^^^^^^^^^^^^^^^^^^^^^^^^^^^^^^^^^^^^^^^",
"^^^^^^^^^^^^^^^^^^^^^^^^^^^^^^^^^^^^^^^^^^^^^^^^^^^^^^^^^^^^uuauo.o^^^^^^^^^^^^^^^^^^^^^^^^^^^^^^^^^^^^^^^^^^^^^^^^^^^^^^^^^^^^^",
"^^^^^^^^^^^^^^^^^^^^^^^^^^^^^^^^^^^^^^^^^^^^^^^^^^^^^^^^^^uuuuuu>o..>>^^^^^^^^^^^^^^^^^^^^^^^^^^^^^^^^^^^^^^^^^^^^^^^^^^^^^^^^^^",
"^^^^^^^^^^^^^^^^^^^^^^^^^^^^^^^^^^^^^^^^^^^^^^^^^^^^^^^^uuuuuuuuu>....>^^^^^^^^^^^^^^^^^^^^^^^^^^^^^^^^^^^^^^^^^^^^^^^^^^^^^^^^^",
"^^^^^^^^^^^^^^^^^^^^^^^^^^^^^^^^^^^^^^^^^^^^^^^^^^^^^^^uuuuuuuuuuu>.. >.>^^^^^^^^^^^^^^^^^^^^^^^^^^^^^^^^^^^^^^^^^^^^^^^^^^^^^^^",
"^^^^^^^^^^^^^^^^^^^^^^^^^^^^^^^^^^^^^^^^^^^^^^^^^^^^^uuuuuuuuuuuuu>>....>>>^^^^^^^^^^^^^^^^^^^^^^^^^^^^^^^^^^^^^^^^^^^^^^^^^^^^^",
"^^^^^^^^^^^^^^^^^^^^^^^^^^^^^^^^^^^^^^^^^^^^^^^^^^^uuuuuuuuuuuuuuuu>>..>..>.^^^^^^^^^^^^^^^^^^^^^^^^^^^^^^^^^^^^^^^^^^^^^^^^^^^^",
"^^^^^^^^^^^^^^^^^^^^^^^^^^^^^^^^^^^^^^^^^^^^^^^^^uuuuuuuuuuuuuuuuuuu>.. ..>>>>^^^^^^^^^^^^^^^^^^^^^^^^^^^^^^^^^^^^^^^^^^^^^^^^^^",
"^^^^^^^^^^^^^^^^^^^^^^^^^^^^^^^^^^^^^^^^^^^^^^^uuuuuuuuuuuuuuuuuuuuuu>>>.X.X.X>.^^^^^^^^^^^^^^^^^^^^^^^^^^^^^^^^^^^^^^^^^^^^^^^^",
"^^^^^^^^^^^^^^^^^^^^^^^^^^^^^^^^^^^^^^^^^^^^^^uuuuuuuuuuuuuuuuuuuuuuuu>.X.X...X..X^^^^^^^^^^^^^^^^^^^^^^^^^^^^^^^^^^^^^^^^^^^^^^",
"^^^^^^^^^^^^^^^^^^^^^^^^^^^^^^^^^^^^^^^^^^^^uiuuuuuuuiiuuuuuuuuuuuuuuu>>.XXXX..XXX..^^^^^^^^^^^^^^^^^^^^^^^^^^^^^^^^^^^^^^^^^^^^",
"^^^^^^^^^^^^^^^^^^^^^^^^^^^^^^^^^^^^^^^^^^iuuuiiuiiuuuuuuiuuiuiuuuuuuuu>XXXXXXXXXXXXX^^^^^^^^^^^^^^^^^^^^^^^^^^^^^^^^^^^^^^^^^^^",
"^^^^^^^^^^^^^^^^^^^^^^^^^^^^^^^^^^^^^^^^uiuuuiu>uuiuuiuuiuiuuiuuiuuuiuuuuOOOXXO$$XXXOOX^^^^^^^^^^^^^^^^^^^^^^^^^^^^^^^^^^^^^^^^^",
"^^^^^^^^^^^^^^^^^^^^^^^^^^^^^^^^^^^^^^^uuuiuuuiuiuiuuiuiuiiuiuiuuuiiuiuiiu$O$XXXXXX$OXXOO^^^^^^^^^^^^^^^^^^^^^^^^^^^^^^^^^^^^^^^",
"^^^^^^^^^^^^^^^^^^^^^^^^^^^^^^^^^^^^^auuiuiuuiuiiuuiiuuuuiuiiuiuuiuuuiiuui&OOXXXXXXX$X$OOXO^^^^^^^^^^^^^^^^^^^^^^^^^^^^^^^^^^^^^",
"^^^^^^^^^^^^^^^^^^^^^^^^^^^^^^^^^^^aaaaauiuiiuiuuuiuuuiauuiuuiuuiuiuiuuiiui$OXXOXXOXOXXXXO$O^^^^^^^^^^^^^^^^^^^^^^^^^^^^^^^^^^^^",
"^^^^^^^^^^^^^^^^^^^^^^^^^^^^^^^^^^aaaaaaaaauiuiuiuuiuuuiiiuiuiiiuuiiiiiiiiiu>O$$$XXXXXXOXXXXXX^^^^^^^^^^^^^^^^^^^^^^^^^^^^^^^^^^",
"^^^^^^^^^^^^^^^^^^^^^^^^^^^^^^^^aaaaaaaaaaaaiiiiiiiuiiiiiiiiiiuiiiuiiiiuiuiii,XXX$$XXO$$X$X$$OXX^^^^^^^^^^^^^^^^^^^^^^^^^^^^^^^^",
"^^^^^^^^^^^^^^^^^^^^^^^^^^^^^^aaaaaaaaaaauaaaaiiiiiiiiiiiiiiiiiiiiiiiiiiiiiiii,OXXX$$$$OO$$$X$$X ^^^^^^^^^^^^^^^^^^^^^^^^^^^^^^^",
"^^^^^^^^^^^^^^^^^^^^^^^^^^^^aaaaaaaaaaaaaaaaaaaaiiiiiiiiiiiiiiiiiiiiiiiiiiiiiii,$$$XO$X$$X$X$O$$O $^^^^^^^^^^^^^^^^^^^^^^^^^^^^^",
"^^^^^^^^^^^^^^^^^^^^^^^^^^aaaaaaaaaaaaaaaaaaaaaaaiiiiiiiiiiiiiiiiiiiiiiiiiiiiiii&XO$O$O$$OX$&X$X$XX i^^^^^^^^^^^^^^^^^^^^^^^^^^^",
"^^^^^^^^^^^^^^^^^^^^^^^^^aaaaaaaaaaaaaaaaaaaaaaaaaai,iiiiiiiiiiiiiiiiiiiiiiiiiiii&$$O$$X$$$O$$X$$$$$ ,j^^^^^^^^^^^^^^^^^^^^^^^^^",
"^^^^^^^^^^^^^^^^^^^^^^^saaaaaaaaajaaaaaajaaaaaaasaaiiiiiiiiiiiiiiiiiiiiiiiiiiii,ii&$$X$$O$$$$X$&$$$$$X ,k^^^^^^^^^^^^^^^^^^^^^^^",
"^^^^^^^^^^^^^^^^^^^^^aaaaajsaaaaaaajaajaaaaasaaasasasiiiii,<iii<iii&pii<,iii<i<iiii&$$$$$$$$$$$$O$$$$$$$$p^^^^^^^^^^^^^^^^^^^^^^",
"^^^^^^^^^^^^^^^^^^^^jsaaasaasaassasaaasaassaaaaassaaaspii<iii<ii<<ii,i<i<<iii<<i<ipi,$$$+,+,+,,+$$$%$$$%$++,^^^^^^^^^^^^^^^^^^^^",
"^^^^^^^^^^^^^^^^^^ajasasjsssasajssjassssasassssjjasssaapipi<i<<iipi<i<i<iip<<ii<i<ii<,%$%$%+%+@,%$$$$$$$$$$@+^^^^^^^^^^^^^^^^^^^",
"^^^^^^^^^^^^^^^^^^aasasaassasssassssasassajsjassaasssajsi<pi<ippiiipip<iii<iiipi<ii<pi<$$%+$,@$%$$%$$%%$$%%$@+^^^^^^^^^^^^^^^^^^",
"^^^^^^^^^^^^^^^^^sjsjsssssssassssassssssassssasssssssassssp<i<pipp<pi<ppp<i<p<ipppp<<pi<%$@,%+$@%$$%%$%$$%$$$$%^^^^^^^^^^^^^^^^^",
"^^^^^^^^^^^^^^^^sssssssssssssssssassssssssaasssssssjssassss<<<<<<<<<i<pi<i<<<<<ii<<<<<ip<,%$$@$,$%%$%$%$$%%$%$%^^^^^^^^^^^^^^^^^",
"^^^^^^^^^^^^^^^^ssssssssaassssssassssssssssaZLLNssaassssssssi<,<<<<<<<<<<<<<i<<<sZFFkp<<<<<@@$@%@$@%%%%%%%%@%%%%^^^^^^^^^^^^^^^^",
"^^^^^^^^^^^^^^^sssssssssssssssssjsjssssssssN~~~!Nasssssssaassp<<<<i<<<<<<i<<<<<iL~~~Qa<<<<<<%@%%%@@@,%%%%%%%%%%%^^^^^^^^^^^^^^^^",
"^^^^^^^^^^^^^^^ssssssssssjssssssssssssssssam~~~~!xssssssssjssss<<<<p<<i<<<<<<<<N~~~~Ws<<<<,<<<%%%%@@@%%%%%%%%$%%%^^^^^^^^^^^^^^^",
"^^^^^^^^^^^^^^^ssssssssgssssssssssjsssssssssI~~~~Qksssajssssgsssip<<<<<<<<<<<<kQ~~~~Z<<<<<<<1<%%%%%%%%@%%%%%%%%%%^^^^^^^^^^^^^^^",
"^^^^^^^^^^^^^^^gssgssgssgssgsgsssssgsgssgssslW~~~~Tassgssa7ssssjds<<<<1<<<<1<sW~~~~Ypp<<<<<<<<<*$%%%%%%%%%%@@@@@%^^^^^^^^^^^^^^^",
"^^^^^^^^^^^^^^^sgsssssssssssgsssgsssssjssssssm!~~~~Fgssssssssssgsss<1<<<<<<<<Y~~~~Qjp<<<<*1<<<<<d%%=@%%@@%@%%@%@@^^^^^^^^^^^^^^^",
"^^^^^^^^^^^^^^^sssgsgjgsgsssssgs7ssgsggssgsgssF~~~~~Nsgsgsgssgsssggs<%1<***<Z~~~~!vp1**;**<%%1<;<<<*=%#@@@@@#%@%@^^^^^^^^^^^^^^^",
"^^^^^^^^^^^^^^^gsgggsgssssggssgsssgssgssgssggslY~~~~!xgsggssssgssggsgp1<***x~~~~~P<**<;;<<;<1<<@1<*<;%%%=#@=@@##=^^^^^^^^^^^^^^^",
"^^^^^^^^^^^^^^^gggsgggggggsgggggsggggggggggjgggx!~~~~Igggsgggggggjggsgdd*;1W~~~~Wd;*;;1;1=;;#111;;*;;1;;%######=#^^^^^^^^^^^^^^^",
"^^^^^^^^^^^^^^^ggsggggggggggjgggsggssgsggsggsggsS~~~~~Zggsggggggggsggssgg;P~~~~!l1;1;;*;11<11<111;**1*;*;;==#=##=^^^^^^^^^^^^^^^",
"^^^^^^^^^^^^^^^glggggsgsggsggggggggggggggggggggglI~~~~!xgggggsgggsgggggggm~~~~~N;;;*1;<;%11#11<1*;1;*;1;;;;*===##^^^^^^^^^^^^^^^",
"^^^^^^^^^^^^^^^ggggggggsggggggggggggggggggggsggggsW~~~~W0gsgggggggsggglzx!~~~~Pd1<111<1=1%11#11@11111111;*11;<1=;^^^^^^^^^^^^^^^",
"^^^^^^^^^^^^^^^gggggggggggggggggggggggggsgggggggggx!~~~~Jzggsggggggggl00R~~~~T;;#11#1#:1111=11111#1#<1#11;1%;1:<;^^^^^^^^^^^^^^^",
"^^^^^^^^^^^^^^^gggggggghggghgggggghggggghgghhggggghA~~~~~Dlgggggggggg00J~~~~!xdd111111=11::;111#1#11#1#1;:;::;:1;^^^^^^^^^^^^^^^",
"^^^^^^^^^^^^^^^hghghhghghghgggghgggghhgggghdghhghgghY~~~~!n0hgghhghgh0H~~~~~Agggf1#11#1=:=1=#-11#11#-1-1=;;:;:=;;^^^^^^^^^^^^^^^",
"^^^^^^^^^^^^^^^ghgghghghghghhggghgdhghghhhgggggggghgz!~~~~Rchghgghgh0n!~~~~Yghghghd11--1:;-11#1-1-1#1-#-:;;;::1::^^^^^^^^^^^^^^^",
"^^^^^^^^^^^^^^^gdhhghghghgg1hghhghgghghgdgghhhhhhhghgb~~~~~J7hgghggzcW~~~~Qhhgghhhgh11111=1--1#11--11#11:::=;::;:^^^^^^^^^^^^^^^",
"^^^^^^^^^^^^^^^hghdghhhhghghhhhhfhghhghghghhhhhghhhgghH~~~~~Ahhhhgz0Y~~~~~cgghhhhghhfdh1-:111-1-11-11--1-1:1:::::^^^^^^^^^^^^^^^",
"^^^^^^^^^^^^^^^hhhhhhhhghhhhhghgghhhhhhhhhhdhghhhghhhhhT~~~~!bhhhh0D~~~~~Shhhhhghgdhhhhhf1-=-----#---1#---1-:::::^^^^^^^^^^^^^^^",
"^^^^^^^^^^^^^^^hghhhdhhhhhhhhhhhhhhhhhhhhhhhhhhhhhhhhhhc!~~~~Tzghzb!~~~~Thhhhhhghhhhhhhghhff11-----1----:-::-::::^^^^^^^^^^^^^^^",
"^^^^^^^^^^^^^^^hhhhhhdhhcggghhghhghhhhhhdhhdhhhhhhhdhhhhD!~~~~D0zqT~~~~!chhfhhhhhhhhhhhhhhhh1f111----------:::-:-^^^^^^^^^^^^^^^",
"^^^^^^^^^^^^^^^hhhgzhcccccMccMcccccccchhhghhhhhhhhhffhhhhH~~~~!b0H~~~~!Ahhhhfhfhhffhhfhhhfhhffff1111-----:------:^^^^^^^^^^^^^^^",
"^^^^^^^^^^^^^^^zcxcccccMccccccccccccccccMccMhcchhhhfhhffhzR~~~~RbD!~~~Dfhhfhhhhhfhhhffffhffhffhh1f1111-1-------::^^^^^^^^^^^^^^^",
"^^^^^^^^^^^^^^^ccccczchccccchMhcccczczczMccchchccczzhhffhhb!~~~~T0bY~Uhffhfhfhhffh666hhfffffffff6hfh1f11:::------^^^^^^^^^^^^^^^",
"^^^^^^^^^^^^^^^zcczchcczccMhccccczcczczcMhccccczccccccchzhhD~~~~~H00bhfff6hffffhfhhhhfffffffhfhfhhfhffffff66:6::-^^^^^^^^^^^^^^^",
"^^^^^^^^^^^^^^^ccczzczzccccchchcccczczczccccccccczczczcczczcY~~~~!A0hffff6hfffffhffhffffffffffhf6hffffffffhh76h66^^^^^^^^^^^^^^^",
"^^^^^^^^^^^^^^^zzzzzcczzhchcccccchzczzzzhchchcczzzzzzzzzzzzzcQ~~~~Wb7f6h6h6f6f6f6f66f66f6fff6f66f66f6f6fff666h6ff^^^^^^^^^^^^^^^",
"^^^^^^^^^^^^^^^zzzzczz0z0zzzzzzzzzzzzzc0zzzzz0zzzzzzzzzczzzzn!~~~~~Yz66f66h6666h66f6f6f666666666f666ff6666f666f6f^^^^^^^^^^^^^^^",
"^^^^^^^^^^^^^^^zzzz0zzczczzzzzzzzzzc0zzzz0zzzzzzzzzzzzz0z0ccW~~~~~~~H0h66666f66666666f6f6f6f67f66f6666f6666f6f666^^^^^^^^^^^^^^^",
"^^^^^^^^^^^^^^^zzzzzzzzzzzzz0zzzz0z0zzzzzzzzzzzzz0zzz0zzz0zY~~~~~~~~!nzzh7666666666666666666666666666666666666666^^^^^^^^^^^^^^^",
"^^^^^^^^^^^^^^^zzzzz0zzzzzzzzzzzzzzzzzzzzzzzzzzzzczzzzzz0cA~~~~~Q~~~~Eczcz7h6666666666666666666666666666666666666^^^^^^^^^^^^^^^",
"^^^^^^^^^^^^^^^z0z0zzz0c0z0zzz0zz0zzzz0z0c0zzz0z0cz0zzz0cbQ~~~~Tn!~~~~J0zz0zz766666566646666666666666666646666666^^^^^^^^^^^^^^^",
"^^^^^^^^^^^^^^^z0zz00zz0z00z0zz00zz00cz0z0c00zz0z00z0z0cqY~~~~!b0D~~~~~H00zz0zzh666-666666666464666666666664-6666^^^^^^^^^^^^^^^",
"^^^^^^^^^^^^^^^0z0z0z0zzc0z0z00zzz0zz0zz0z0zz0z0z0z0z0z0J~~~~~AzzcY~~~~!nzz0z0zz0766-46664464644-4444646464644456^^^^^^^^^^^^^^^",
"^^^^^^^^^^^^^^^z0z0zz0000z0zz0z000z00z00z0z00z0z0z0z0z0V~~~~~Y0z00cE~~~~Ec0z0z00zz0775464:64646-64646464646464444^^^^^^^^^^^^^^^",
"^^^^^^^^^^^^^^^00z0z70z00z00z70z0000z00z000z00z700z00zc!~~~~Rq00000A!~~~~K000z000z00z0764644-64446444444444444444^^^^^^^^^^^^^^^",
"^^^^^^^^^^^^^^^000000000000000000000000700000000z0000qT~~~~!n0z00000H~~~~~D000z0000z000077544444444-444-4444444-4^^^^^^^^^^^^^^^",
"^^^^^^^^^^^^^^^00000000000000000z00000000000000000000H~~~~~D00000z00qT~~~~!b0000000000z0000080565442444-444444444^^^^^^^^^^^^^^^",
"^^^^^^^^^^^^^^^0000000707000007000000070007070000000n~~~~~Y0000007700bQ~~~~Rq000000000700008000875758425545454444^^^^^^^^^^^^^^^",
"^^^^^^^^^^^^^^^805800080008580088080088078008000000qQ~~~~Eq00008005080V!~~~~U000807808088800080000080000880057855^^^^^^^^^^^^^^^",
"^^^^^^^^^^^^^^^000087050800008000000078000080058800Y~~~~!n0080878080000C~~~~~n08008080700080080808050508088080700^^^^^^^^^^^^^^^",
"^^^^^^^^^^^^^^^08000000078000800578800008800780000D~~~~~n005058080070800K~~~~!r0050800500505075078000007080000800^^^^^^^^^^^^^^^",
"^^^^^^^^^^^^^^^8058758780888000000000505005508508r!~~~~J05000000080880800Q~~~~R0005005080000800080080580800880080^^^^^^^^^^^^^^^",
"^^^^^^^^^^^^^^^550878000q00qq0bqrrrcq00q0q080880qR~~~~!080080808800800800t~~~~~H088080080800080800008008008000800^^^^^^^^^^^^^^^",
"^^^^^^^^^^^^^^^00qqqqqqbbbqrqbbrrrbrbqrrrcqqqq8qK~~~~~r0888885585885558808H~~~~~n88885858858855055588858588558585^^^^^^^^^^^^^^^",
"^^^^^^^^^^^^^^^bbrrbbbrrbbbbbrbrrbrbrbrrrbrbbrrH~~~~~H088788570588505850858T~~~~!q5888058858558888505088858885888^^^^^^^^^^^^^^^",
"^^^^^^^^^^^^^^^rbrbbbrbrqqbrqbrbbbrrbqbbbrrbrrV!~~~~Trrrqqqqq88855888885085q!~~~~T8885888808808858888585058580888^^^^^^^^^^^^^^^",
"^^^^^^^^^^^^^^^rrrrrbrrrbrbrrbrrrbrrrrrbrrrbbnR~~~~Ebbrrbrrbrrqqqq8888555505n~~~~~H058578888888858888858558888555^^^^^^^^^^^^^^^",
"^^^^^^^^^^^^^^^rrrrrrrrrrrrrrqrrrrrrrrqrrrrrrJ~~~~~Vrrrrrqrrrrrrrrrqqqq098585H~~~~!t58852855555585558555585558585^^^^^^^^^^^^^^^",
"^^^^^^^^^^^^^^^rrqrqrrrrrrrrrrrqrrqrrqrrrqqqC~~~~~Grrrrrrqrqrrqrrrrrrrqrrq9q90T~~~~E92522882825855585555555585885^^^^^^^^^^^^^^^",
"^^^^^^^^^^^^^^^rrrrrrrqrrqrrqrrrrrrrrrrrrrqt!~~~~YrrrrrrrrrrrrrrrrrqrrrrrrqrrrrE~~~~K988882882252525525225252222^^^^^^^^^^^^^^^^",
"^^^^^^^^^^^^^^^^rrrqqrrrqwrrqrrrrrrrrrwrrrwH~~~~RrrqrrrqrrrrrrrrqrrqqrrwqrrqqrrC~~~~~tqqqq9098982882228252222242^^^^^^^^^^^^^^^^",
"^^^^^^^^^^^^^^^^qrrwrrrrrrrrrrrqqwqrqrqrrqqV~~~!trrrqwrwrqwqrqwqrrrwrrrrrrqrrwrrH~~~Etqqrrrrqrqqqwqqrqqq8998899^^^^^^^^^^^^^^^^^",
"^^^^^^^^^^^^^^^^^rqwqqrqqrqqwqqwqwqqwqwqrqwqtCyrqwqqrwqqqwqwwqqwqwqqwqwwwqwqwqqqqtCVwrwqqwrwqwwrrwrwwrwrrrwwrrr^^^^^^^^^^^^^^^^^",
"^^^^^^^^^^^^^^^^^wrqwqqwwqwqwqwqwqwqwqq9qwqwqwrw9wq9qqqwqqqqwq99q9qwwqqqqwqqqqwwqqqwqwq9qwqqwqqwqwqwqwqwwqqqwq^^^^^^^^^^^^^^^^^^",
"^^^^^^^^^^^^^^^^^^q9q999qq9q9q99qwq999qqq999q99w99w9w99999q999qq9wwq9999qw9q9qq9wqqwq9wq9ww99qw9w999999q9q9wqw^^^^^^^^^^^^^^^^^^",
"^^^^^^^^^^^^^^^^^^^q99wq99999999q9q9q9w999q99q9999q999999qq9q99w99999w9q99999999999q999q9qq9999q9w999qq9qwwqq^^^^^^^^^^^^^^^^^^^",
"^^^^^^^^^^^^^^^^^^^^9999999q9q999q99wqw999999qq9999wq99w999w9w999wq99999999qq999wqw9999999999w999999qww9qqw^^^^^^^^^^^^^^^^^^^^^",
"^^^^^^^^^^^^^^^^^^^^^^9w99w99w99999999q999w9999w9w9999999999999wwqw99999999ww99w999wwqw999999999q9w99999w^^^^^^^^^^^^^^^^^^^^^^^",
"^^^^^^^^^^^^^^^^^^^^^^^^wq9wq999w9999wq9999w99999999w999993999999w9999wq99w99w9999w9999999999w99w9999w99^^^^^^^^^^^^^^^^^^^^^^^^",
"^^^^^^^^^^^^^^^^^^^^^^^^^^9w9w9999999999w9wq999999999999999w99999999999w99q39999999999999999939999wq99^^^^^^^^^^^^^^^^^^^^^^^^^^",
"^^^^^^^^^^^^^^^^^^^^^^^^^^^q3w99w9944583w339393999399999993w999999993993939999w993999999999999999999^^^^^^^^^^^^^^^^^^^^^^^^^^^^",
"^^^^^^^^^^^^^^^^^^^^^^^^^^^^^wwwww3wwwww33w3wwwww993344583933445833333w3399393w3399393344589934458^^^^^^^^^^^^^^^^^^^^^^^^^^^^^^",
"^^^^^^^^^^^^^^^^^^^^^^^^^^^^^^^ytttttyyyytttttttttwtewweeeweewe3393ww333ww93w39393w394458334458w^^^^^^^^^^^^^^^^^^^^^^^^^^^^^^^^",
"^^^^^^^^^^^^^^^^^^^^^^^^^^^^^^^^^yVyVyyyyyyytVyytyyyytyytytttttttttttyteewewwwwwwwewwww9w3333w3^^^^^^^^^^^^^^^^^^^^^^^^^^^^^^^^^",
"^^^^^^^^^^^^^^^^^^^^^^^^^^^^^^^^^^yyyyyyyyyyyyyyyyyyyyyyyyyytyyyyytyyyyyyyyttttttyytttttttter^^^^^^^^^^^^^^^^^^^^^^^^^^^^^^^^^^^",
"^^^^^^^^^^^^^^^^^^^^^^^^^^^^^^^^^^^^yyyyyyyyyyyyytyyyyyyyyyyyyyyyyyyyyyyyyyyyyyyyyyytVtynyy^^^^^^^^^^^^^^^^^^^^^^^^^^^^^^^^^^^^^",
"^^^^^^^^^^^^^^^^^^^^^^^^^^^^^^^^^^^^^^yyyyyyyyyyyyyyyyytyyytyytyyyyyyyyyyyyyyyyyyyyyyyyyyy^^^^^^^^^^^^^^^^^^^^^^^^^^^^^^^^^^^^^^",
"^^^^^^^^^^^^^^^^^^^^^^^^^^^^^^^^^^^^^^^^yyyyyyyyyyyyytyyyyyyyyyyyyyyytyyyyyyyyyyyyyytyyy^^^^^^^^^^^^^^^^^^^^^^^^^^^^^^^^^^^^^^^^",
"^^^^^^^^^^^^^^^^^^^^^^^^^^^^^^^^^^^^^^^^^yyyyyyyyyyyyyyytyyyyyytyyyyyyyyyytyyytyttyyyy^^^^^^^^^^^^^^^^^^^^^^^^^^^^^^^^^^^^^^^^^^",
"^^^^^^^^^^^^^^^^^^^^^^^^^^^^^^^^^^^^^^^^^^^yyyyyyyyyyyyytyyyyyyyyytyytyyyyyyyyyyyyty^^^^^^^^^^^^^^^^^^^^^^^^^^^^^^^^^^^^^^^^^^^^",
"^^^^^^^^^^^^^^^^^^^^^^^^^^^^^^^^^^^^^^^^^^^^^yyyyyyyyyyyyyyyyytyyyyyyyyyyyyyyyyyyyt^^^^^^^^^^^^^^^^^^^^^^^^^^^^^^^^^^^^^^^^^^^^^",
"^^^^^^^^^^^^^^^^^^^^^^^^^^^^^^^^^^^^^^^^^^^^^^^yyyytyyyyyyyyyyyyytyyyyytyyyyyytyy^^^^^^^^^^^^^^^^^^^^^^^^^^^^^^^^^^^^^^^^^^^^^^^",
"^^^^^^^^^^^^^^^^^^^^^^^^^^^^^^^^^^^^^^^^^^^^^^^^yyyytyyyyyyyyyytyytyttyyyyyyyyt^^^^^^^^^^^^^^^^^^^^^^^^^^^^^^^^^^^^^^^^^^^^^^^^^",
"^^^^^^^^^^^^^^^^^^^^^^^^^^^^^^^^^^^^^^^^^^^^^^^^^^yyyyyyyyyyyyyyyyyyyyyyttyyy^^^^^^^^^^^^^^^^^^^^^^^^^^^^^^^^^^^^^^^^^^^^^^^^^^^",
"^^^^^^^^^^^^^^^^^^^^^^^^^^^^^^^^^^^^^^^^^^^^^^^^^^^^yyyyyyyyyyyyyyyyyyyyyyyy^^^^^^^^^^^^^^^^^^^^^^^^^^^^^^^^^^^^^^^^^^^^^^^^^^^^",
"^^^^^^^^^^^^^^^^^^^^^^^^^^^^^^^^^^^^^^^^^^^^^^^^^^^^^^yyyyyyyyyyyyyyttyyyt^^^^^^^^^^^^^^^^^^^^^^^^^^^^^^^^^^^^^^^^^^^^^^^^^^^^^^",
"^^^^^^^^^^^^^^^^^^^^^^^^^^^^^^^^^^^^^^^^^^^^^^^^^^^^^^^yyyyyyyyyyyttytyy^^^^^^^^^^^^^^^^^^^^^^^^^^^^^^^^^^^^^^^^^^^^^^^^^^^^^^^^",
"^^^^^^^^^^^^^^^^^^^^^^^^^^^^^^^^^^^^^^^^^^^^^^^^^^^^^^^^^yyCCyCCGyGyCy^^^^^^^^^^^^^^^^^^^^^^^^^^^^^^^^^^^^^^^^^^^^^^^^^^^^^^^^^^",
"^^^^^^^^^^^^^^^^^^^^^^^^^^^^^^^^^^^^^^^^^^^^^^^^^^^^^^^^^^^GGHHGGGGGG^^^^^^^^^^^^^^^^^^^^^^^^^^^^^^^^^^^^^^^^^^^^^^^^^^^^^^^^^^^",
"^^^^^^^^^^^^^^^^^^^^^^^^^^^^^^^^^^^^^^^^^^^^^^^^^^^^^^^^^^^^^^^^^^^^^^^^^^^^^^^^^^^^^^^^^^^^^^^^^^^^^^^^^^^^^^^^^^^^^^^^^^^^^^^^",
"^^^^^^^^^^^^^^^^^^^^^^^^^^^^^^^^^^^^^^^^^^^^^^^^^^^^^^^^^^^^^^^^^^^^^^^^^^^^^^^^^^^^^^^^^^^^^^^^^^^^^^^^^^^^^^^^^^^^^^^^^^^^^^^^",
"^^^^^^^^^^^^^^^^^^^^^^^^^^^^^^^^^^^^^^^^^^^^^^^^^^^^^^^^^^^^^^^^^^^^^^^^^^^^^^^^^^^^^^^^^^^^^^^^^^^^^^^^^^^^^^^^^^^^^^^^^^^^^^^^",
"^^^^^^^^^^^^^^^^^^^^^^^^^^^^^^^^^^^^^^^^^^^^^^^^^^^^^^^^^^^^^^^^^^^^^^^^^^^^^^^^^^^^^^^^^^^^^^^^^^^^^^^^^^^^^^^^^^^^^^^^^^^^^^^^",
"^^^^^^^^^^^^^^^^^^^^^^^^^^^^^^^^^^^^^^^^^^^^^^^^^^^^^^^^^^^^^^^^^^^^^^^^^^^^^^^^^^^^^^^^^^^^^^^^^^^^^^^^^^^^^^^^^^^^^^^^^^^^^^^^",
"^^^^^^^^^^^^^^^^^^^^^^^^^^^^^^^^^^^^^^^^^^^^^^^^^^^^^^^^^^^^^^^^^^^^^^^^^^^^^^^^^^^^^^^^^^^^^^^^^^^^^^^^^^^^^^^^^^^^^^^^^^^^^^^^",
"^^^^^^^^^^^^^^^^^^^^^^^^^^^^^^^^^^^^^^^^^^^^^^^^^^^^^^^^^^^^^^^^^^^^^^^^^^^^^^^^^^^^^^^^^^^^^^^^^^^^^^^^^^^^^^^^^^^^^^^^^^^^^^^^",
"^^^^^^^^^^^^^^^^^^^^^^^^^^^^^^^^^^^^^^^^^^^^^^^^^^^^^^^^^^^^^^^^^^^^^^^^^^^^^^^^^^^^^^^^^^^^^^^^^^^^^^^^^^^^^^^^^^^^^^^^^^^^^^^^",
"^^^^^^^^^^^^^^^^^^^^^^^^^^^^^^^^^^^^^^^^^^^^^^^^^^^^^^^^^^^^^^^^^^^^^^^^^^^^^^^^^^^^^^^^^^^^^^^^^^^^^^^^^^^^^^^^^^^^^^^^^^^^^^^^",
"^^^^^^^^^^^^^^^^^^^^^^^^^^^^^^^^^^^^^^^^^^^^^^^^^^^^^^^^^^^^^^^^^^^^^^^^^^^^^^^^^^^^^^^^^^^^^^^^^^^^^^^^^^^^^^^^^^^^^^^^^^^^^^^^",
"^^^^^^^^^^^^^^^^^^^^^^^^^^^^^^^^^^^^^^^^^^^^^^^^^^^^^^^^^^^^^^^^^^^^^^^^^^^^^^^^^^^^^^^^^^^^^^^^^^^^^^^^^^^^^^^^^^^^^^^^^^^^^^^^"
};
