/* XPM */
static char *_530121420109[] = {
/* columns rows colors chars-per-pixel */
"64 64 70 1 ",
"  c #D777DF",
". c #DC76DE",
"X c #D778DF",
"o c #D978DF",
"O c #F06FDC",
"+ c #E375DE",
"@ c #EA71DD",
"# c #E27BDF",
"$ c #ED7CDF",
"% c #F173DD",
"& c #FF77DC",
"* c #F47BDF",
"= c #FC79DD",
"- c #DA7BE0",
"; c #E27CE0",
": c #EA7FE0",
"> c #FC7FE0",
", c #FF83D5",
"< c #FF8ED4",
"1 c #FF85DC",
"2 c #FF8BDC",
"3 c #FF91D6",
"4 c #FF9FD5",
"5 c #FF92DB",
"6 c #FF9DDA",
"7 c #FFA2D5",
"8 c #FFA1DC",
"9 c #FFACDB",
"0 c #FFB0DC",
"q c #DE82E1",
"w c #E381E1",
"e c #EA82E1",
"r c #E68EE4",
"t c #EB8DE4",
"y c #F383E1",
"u c #FE86E0",
"i c #F48BE3",
"p c #FB8AE2",
"a c #EC91E5",
"s c #EF98E6",
"d c #F394E5",
"f c #FE95E2",
"g c #F098E6",
"h c #FD99E4",
"j c #EFA3E9",
"k c #EFA8EA",
"l c #FEA3E3",
"z c #FFACE4",
"x c #F2A4E9",
"c c #F5A9EA",
"v c #FCACE9",
"b c #FFB4E4",
"n c #FFBCE7",
"m c #F4B4ED",
"M c #FCB4EA",
"N c #FEBCEB",
"B c #FFC3E7",
"V c #FFC4EC",
"C c #FFD2EF",
"Z c #F6C3F1",
"A c #FAC3F0",
"S c #FECAF0",
"D c #FED4F2",
"F c #FEDBF4",
"G c #FEE2F6",
"H c #FBE4F8",
"J c #FFEBF9",
"K c #FEF4FC",
"L c #FFFDFF",
"P c None",
/* pixels */
"PPPPPPPPPPPPPPPPPPPPPPPPPPPPPPPPPPPPPPPPPPPPPPPPPPPPPPPPPPPPPPPP",
"PPPPPPPPPPPPPPPPPPPPPPPPPPPPPPPPPPPPPPPPPPPPPPPPPPPPPPPPPPPPPPPP",
"PPPPPPPPPPPPPPPPPPPPPPPPPPPPPPPPPPPPPPPPPPPPPPPPPPPPPPPPPPPPPPPP",
"PPPPPPPPPPPPPPPPPPPPPPPPPPPPPPPPPPPPPPPPPPPPPPPPPPPPPPPPPPPPPPPP",
"PPPPPPPPPPPPPPPPPPPPPPPPPPPPPPPPPPPPPPPPPPPPPPPPPPPPPPPPPPPPPPPP",
"PPPPPPPPPPPPPPPPPPPPPPPPPPPPPqqq-  PPPPPPPPPPPPPPPPPPPPPPPPPPPPP",
"PPPPPPPPPPPPPPPPPPPPPPPPPPPqqqqqq-  -PPPPPPPPPPPPPPPPPPPPPPPPPPP",
"PPPPPPPPPPPPPPPPPPPPPPPPPqqqqqqqqq-----PPPPPPPPPPPPPPPPPPPPPPPPP",
"PPPPPPPPPPPPPPPPPPPPPPPqqqqqqqqqqqqX .  PPPPPPPPPPPPPPPPPPPPPPPP",
"PPPPPPPPPPPPPPPPPPPPPPqqqwqqqwqqqqw-......PPPPPPPPPPPPPPPPPPPPPP",
"PPPPPPPPPPPPPPPPPPPPqqqwwqqwwqqwqwqww....+..PPPPPPPPPPPPPPPPPPPP",
"PPPPPPPPPPPPPPPPPPrrwwwqwqqwqwqqqqwqww........PPPPPPPPPPPPPPPPPP",
"PPPPPPPPPPPPPPPPrrrrrrwwwqwqwwwwwwqwww;..+..+o.PPPPPPPPPPPPPPPPP",
"PPPPPPPPPPPPPPrrrrrrrrrwwwwwwwwwwwwwwwwo+.+.#+++.PPPPPPPPPPPPPPP",
"PPPPPPPPPPPPPrrrrrrrrrrrrwwwwwwwwwwwwwwe#+.++.+o+.:PPPPPPPPPPPPP",
"PPPPPPPPPPPrrrrrrrrrrrrrrrwewwwwwwewwwwww#++++++++++rPPPPPPPPPPP",
"PPPPPPPPPPartrrrattrtrattrtewew:w:e;w:;:::;;+++@++@+++PPPPPPPPPP",
"PPPPPPPPPtatttttrtttrrttrtttre:wwwww:weww;::@+@;++@++@@PPPPPPPPP",
"PPPPPPPPttttttttatttrajjaratree::::::::esjaw;@@@@+@@@+@@PPPPPPPP",
"PPPPPPPPatttrarattttrjKKmtttttte::e:;eeaJLm:::@@@@@@@@@@PPPPPPPP",
"PPPPPPPtaittttttttttttDLKjrrattte:::::eFLKs::::$@@@@@@@@PPPPPPPP",
"PPPPPPPittttitititititgHLHstttitti::$:ALLm::$$*:$$OO@OOOPPPPPPPP",
"PPPPPPPitiitittiititiiicKLFd2tititiy:xLLN::>*:$>*:*$OOOOPPPPPPPP",
"PPPPPPPiiiiiiiiiiiiititiNLLZiiiiiiiidKLF>:**>:%:***$*$OOPPPPPPPP",
"PPPPPPPiiiiiiiiiiiiiiiiidFLKviiiiiihGLKi**:>%::=>%%:*::*PPPPPPPP",
"PPPPPPPiipiiiipiiiiipiiipxKLJhiiiipBLLMy**=**=*%%*>>===*PPPPPPPP",
"PPPPPPPiiipiypiipipiiyippiMKLSpiiplLLFiiip>>=%=>*=>%=**=PPPPPPPP",
"PPPPPPPppppppppppppppppppppSLLMpphJLKdpppiyp>*===*&%>&==PPPPPPPP",
"PPPPPPPpppppppppippppppppppfFLKhfFLLvppppppppp>>&&&>=&=&PPPPPPPP",
"PPPPPPPfpfdhhhhhhhhfdppppppplKLFbLLAuuppuuupuuuuu>&&==&=PPPPPPPP",
"PPPPPPPhhhffhhhhhhfhhhhhhffppNLLSzVpuuuuuuuuuuuuuuuu1===PPPPPPPP",
"PPPPPPPhhhfhhhffhhffhhfffhffhhDLKbuu2uuu2uu1uu1uu1uuu121PPPPPPPP",
"PPPPPPPffffhffffffffffffffffhhGLLKh21111111111111121u111PPPPPPPP",
"PPPPPPPff5fffffffffffffff5ff5ALLLLJhf1111112111111111111PPPPPPPP",
"PPPPPPPff5fff5f55ff55ffff5ffMLLDVLLDfff211111111111111,1PPPPPPPP",
"PPPPPPPf5f5f5ff5f5f5f55f5f5lJLJl5DLLN5f55211,,,=,1,,,,1,PPPPPPPP",
"PPPPPPP5555f55f555f555555f5FLKb555GLKl555f522,,,,=,,,,,,PPPPPPPP",
"PPPPPPP55f555525555555f555NLLC55f59LLF555555552<<<,,,,,,PPPPPPPP",
"PPPPPPP55555555<535553325zKLJ553555NLLN5535355352355355<PPPPPPPP",
"PPPPPPP<5<55<555<55553556JLKl<555355FLL85355535552355335PPPPPPPP",
"PPPPPPP55656h66l8l658565CLLb5353<5356KLJ3333333535333333PPPPPPPP",
"PPPPPPP88l88l8l8l68ll88VLLC665353<<<58LLC5333<3<<<333333PPPPPPPP",
"PPPPPPP888888888888888bKLGl88886665333BLLV33<3<3<33<3<<3PPPPPPPP",
"PPPPPPPP68888888688888JLJ98886888888666FLL4458<3<<<<<<<<PPPPPPPP",
"PPPPPPPP8888888888888bKLb888884788888689KLC8844334333<33PPPPPPPP",
"PPPPPPPP86466648464487896674764447866786898667867878887PPPPPPPPP",
"PPPPPPPPP464746446684474744444444444444474447467447476PPPPPPPPPP",
"PPPPPPPPPPP444444744444764444444767447467484444444476PPPPPPPPPPP",
"PPPPPPPPPPPP474477744744444474444477444444744444444PPPPPPPPPPPPP",
"PPPPPPPPPPPPPP477747447744447744444744444444444444PPPPPPPPPPPPPP",
"PPPPPPPPPPPPPPPP00009999797997977777777777774444PPPPPPPPPPPPPPPP",
"PPPPPPPPPPPPPPPPPP0000000000000009000909979997PPPPPPPPPPPPPPPPPP",
"PPPPPPPPPPPPPPPPPPP0000000000000000000000000PPPPPPPPPPPPPPPPPPPP",
"PPPPPPPPPPPPPPPPPPPPP0000000000000000000000PPPPPPPPPPPPPPPPPPPPP",
"PPPPPPPPPPPPPPPPPPPPPPP000000000090000000PPPPPPPPPPPPPPPPPPPPPPP",
"PPPPPPPPPPPPPPPPPPPPPPPPP00000000000000PPPPPPPPPPPPPPPPPPPPPPPPP",
"PPPPPPPPPPPPPPPPPPPPPPPPPP00000000000PPPPPPPPPPPPPPPPPPPPPPPPPPP",
"PPPPPPPPPPPPPPPPPPPPPPPPPPPP00000000PPPPPPPPPPPPPPPPPPPPPPPPPPPP",
"PPPPPPPPPPPPPPPPPPPPPPPPPPPPPPCBBPPPPPPPPPPPPPPPPPPPPPPPPPPPPPPP",
"PPPPPPPPPPPPPPPPPPPPPPPPPPPPPPPPPPPPPPPPPPPPPPPPPPPPPPPPPPPPPPPP",
"PPPPPPPPPPPPPPPPPPPPPPPPPPPPPPPPPPPPPPPPPPPPPPPPPPPPPPPPPPPPPPPP",
"PPPPPPPPPPPPPPPPPPPPPPPPPPPPPPPPPPPPPPPPPPPPPPPPPPPPPPPPPPPPPPPP",
"PPPPPPPPPPPPPPPPPPPPPPPPPPPPPPPPPPPPPPPPPPPPPPPPPPPPPPPPPPPPPPPP",
"PPPPPPPPPPPPPPPPPPPPPPPPPPPPPPPPPPPPPPPPPPPPPPPPPPPPPPPPPPPPPPPP"
};
