/* XPM */
static char *_530121358834[] = {
/* columns rows colors chars-per-pixel */
"16 16 106 2 ",
"   c #DD76DE",
".  c #DD79DF",
"X  c #E276DE",
"o  c #E277DF",
"O  c #E776DE",
"+  c #E873DD",
"@  c #E973DD",
"#  c #EF73DD",
"$  c #EF77DE",
"%  c #E278DF",
"&  c #F77BDF",
"*  c #F879DE",
"=  c #F87ADF",
"-  c #FE7CDD",
";  c #DA7CE0",
":  c #EF7CE0",
">  c #FF89D7",
",  c #FE80DF",
"<  c #FF85DC",
"1  c #FF87DD",
"2  c #FF8AD8",
"3  c #FF8CD9",
"4  c #FF8EDF",
"5  c #FF90D6",
"6  c #FF91D6",
"7  c #FF91D7",
"8  c #FF9AD6",
"9  c #FF9FD4",
"0  c #FF9FD5",
"q  c #FF9CD6",
"w  c #FF9CD7",
"e  c #FF90DB",
"r  c #FF95D8",
"t  c #FF93DC",
"y  c #FF94DC",
"u  c #FF99DA",
"i  c #FF9FD8",
"p  c #FF9FD9",
"a  c #FF9DDC",
"s  c #FF9EDD",
"d  c #FFA0D5",
"f  c #FFA1D5",
"g  c #FFA0D6",
"h  c #FFA2D6",
"j  c #FFA3D7",
"k  c #FFA4D7",
"l  c #FFA2DA",
"z  c #FFA7DB",
"x  c #FFB0DC",
"c  c #FFB1DC",
"v  c #FFB0DD",
"b  c #FFB1DD",
"n  c #FFB1DF",
"m  c #DD82E2",
"M  c #E082E1",
"N  c #E480E1",
"B  c #E481E1",
"V  c #E586E2",
"C  c #E880E1",
"Z  c #E983E2",
"A  c #E986E2",
"S  c #EF87E2",
"D  c #E78DE4",
"F  c #E78EE4",
"G  c #EA8EE4",
"H  c #EB8EE4",
"J  c #F781E0",
"K  c #FE86E0",
"L  c #F78AE2",
"P  c #F78AE3",
"I  c #F78BE3",
"U  c #F08DE3",
"Y  c #FD88E1",
"T  c #FE8CE2",
"R  c #EB94E6",
"E  c #EC95E6",
"W  c #FD90E3",
"Q  c #FF95E1",
"!  c #FF96E1",
"~  c #FD92E4",
"^  c #FC93E4",
"/  c #FC94E4",
"(  c #FC95E5",
")  c #F39BE7",
"_  c #F39FE8",
"`  c #EEA1E9",
"'  c #FFA9E0",
"]  c #FFACE2",
"[  c #FAAAE9",
"{  c #FFB2E0",
"}  c #FFB1E5",
"|  c #FFB5E7",
" . c #FBB1EC",
".. c #FAB7ED",
"X. c #F6B8EE",
"o. c #FFBDE9",
"O. c #FBBDEF",
"+. c #FFC0EB",
"@. c #FFC7EA",
"#. c #FFC7EF",
"$. c #FFD3EF",
"%. c #F8CBF2",
"&. c #FFCFF2",
"*. c #FFD0F2",
"=. c #FFD2F3",
"-. c None",
/* pixels */
"-.-.-.-.-.-.-.-.-.-.-.-.-.-.-.-.",
"-.-.-.-.-.-.-.-.-.-.-.-.-.-.-.-.",
"-.-.-.-.-.-.-.m ; -.-.-.-.-.-.-.",
"-.-.-.-.-.M M M M .   -.-.-.-.-.",
"-.-.-.G F F V N m : : X o -.-.-.",
"-.-.G G G ` E A N V F + @ @ -.-.",
"-.-.U U H _ %.U S X._ : $ # -.-.",
"-.-.I I L L  ...[ O.J & * * -.-.",
"-.-./ / / W W =.%.T T K - - -.-.",
"-.-.! ! ! ! ! &.&.4 < < < < -.-.",
"-.-.e y e y | o.} o.e 2 2 > -.-.",
"-.-.s s s ] $.u r @.' r 3 r -.-.",
"-.-.l p l b z l l l b q q 8 -.-.",
"-.-.-.q l d k d d d d q d -.-.-.",
"-.-.-.-.-.b x b b b b -.-.-.-.-.",
"-.-.-.-.-.-.-.c b -.-.-.-.-.-.-."
};
